<?xml version="1.0" encoding="UTF-8" standalone="no"?>
<!-- Created with Inkscape (http://www.inkscape.org/) -->

<svg
   xmlns:dc="http://purl.org/dc/elements/1.1/"
   xmlns:cc="http://creativecommons.org/ns#"
   xmlns:rdf="http://www.w3.org/1999/02/22-rdf-syntax-ns#"
   xmlns:svg="http://www.w3.org/2000/svg"
   xmlns="http://www.w3.org/2000/svg"
   xmlns:sodipodi="http://sodipodi.sourceforge.net/DTD/sodipodi-0.dtd"
   xmlns:inkscape="http://www.inkscape.org/namespaces/inkscape"
   width="1850"
   height="1000"
   id="svg2"
   version="1.1"
   inkscape:version="0.92.4 (5da689c313, 2019-01-14)"
   sodipodi:docname="background.svg"
   inkscape:export-filename="C:\Users\dcarragher\Dropbox\impress.js\examples\classic-slides\images\background.png"
   inkscape:export-xdpi="98.883408"
   inkscape:export-ydpi="98.883408">
  <defs
     id="defs4">
    <linearGradient
       id="linearGradient3972">
      <stop
         style="stop-color:#d7d7d7;stop-opacity:1;"
         offset="0"
         id="stop3974" />
      <stop
         id="stop4001"
         offset="0.5"
         style="stop-color:#e4e4eb;stop-opacity:0.49803922;" />
      <stop
         style="stop-color:#f2f2ff;stop-opacity:0;"
         offset="1"
         id="stop3976" />
    </linearGradient>
  </defs>
  <sodipodi:namedview
     id="base"
     pagecolor="#ffffff"
     bordercolor="#666666"
     borderopacity="1.0"
     inkscape:pageopacity="0.0"
     inkscape:pageshadow="2"
     inkscape:zoom="2.8"
     inkscape:cx="1433.7478"
     inkscape:cy="832.96401"
     inkscape:document-units="px"
     inkscape:current-layer="layer1"
     showgrid="false"
     inkscape:window-width="1920"
     inkscape:window-height="1000"
     inkscape:window-x="-11"
     inkscape:window-y="-11"
     inkscape:window-maximized="1" />
  <metadata
     id="metadata7">
    <rdf:RDF>
      <cc:Work
         rdf:about="">
        <dc:format>image/svg+xml</dc:format>
        <dc:type
           rdf:resource="http://purl.org/dc/dcmitype/StillImage" />
        <dc:title></dc:title>
      </cc:Work>
    </rdf:RDF>
  </metadata>
  <g
     inkscape:label="Layer 1"
     inkscape:groupmode="layer"
     id="layer1"
     transform="translate(0,-52.36218)">
    <path
       sodipodi:type="star"
       style="fill:#f7f7f7;fill-opacity:1;stroke:#dccbcb;stroke-width:0.49829507;stroke-opacity:1"
       id="path3195"
       sodipodi:sides="5"
       sodipodi:cx="1770.7466"
       sodipodi:cy="247.52863"
       sodipodi:r1="18.246151"
       sodipodi:r2="14.761445"
       sodipodi:arg1="1.2120257"
       sodipodi:arg2="1.8403442"
       inkscape:flatsided="true"
       inkscape:rounded="0"
       inkscape:randomized="0"
       d="m 1777.1532,264.61303 -20.6751,-5.71195 -0.9566,-21.42829 20.084,-7.53147 13.3691,16.77359 z"
       inkscape:transform-center-x="-1.50147"
       inkscape:transform-center-y="-0.2514516" />
    <path
       sodipodi:type="star"
       style="fill:#d7d7d7;fill-opacity:1;stroke:#c8b7b7;stroke-width:0.49829507"
       id="path3197"
       sodipodi:sides="5"
       sodipodi:cx="1756.5096"
       sodipodi:cy="219.05463"
       sodipodi:r1="23.705784"
       sodipodi:r2="19.178383"
       sodipodi:arg1="0.72165485"
       sodipodi:arg2="1.3499734"
       inkscape:flatsided="true"
       inkscape:rounded="0"
       inkscape:randomized="0"
       d="m 1774.3059,234.71533 -27.1911,6.10396 -14.2078,-23.97406 18.4103,-20.92075 25.5859,11.04433 z"
       inkscape:transform-center-x="1.6045478"
       inkscape:transform-center-y="-0.68274238" />
    <path
       sodipodi:type="star"
       style="fill:#f2f2f2;fill-opacity:1;stroke:#c8b7b7;stroke-width:0.49829507"
       id="path3199"
       sodipodi:sides="5"
       sodipodi:cx="1777.1532"
       sodipodi:cy="201.97021"
       sodipodi:r1="19.688801"
       sodipodi:r2="15.928574"
       sodipodi:arg1="2.4329664"
       sodipodi:arg2="3.0612849"
       inkscape:flatsided="true"
       inkscape:rounded="0"
       inkscape:randomized="0"
       d="m 1762.2043,214.78352 -1.8567,-23.07098 21.368,-8.89522 15.0629,17.57343 -12.0586,19.7562 z"
       inkscape:transform-center-x="-1.409826"
       inkscape:transform-center-y="-0.48807819" />
    <path
       sodipodi:type="star"
       style="fill:#999999;fill-opacity:1;stroke:#c8b7b7"
       id="path3197-6"
       sodipodi:sides="5"
       sodipodi:cx="-478.57144"
       sodipodi:cy="288.57144"
       sodipodi:r1="47.573788"
       sodipodi:r2="38.488003"
       sodipodi:arg1="0.72165485"
       sodipodi:arg2="1.3499734"
       inkscape:flatsided="true"
       inkscape:rounded="0"
       inkscape:randomized="0"
       d="m -442.85716,320.00001 -54.56831,12.2497 -28.51269,-48.11219 36.94651,-41.98466 51.34688,22.16424 z"
       transform="matrix(0.44159933,0.23084195,-0.23084195,0.44159933,328.12717,970.37203)"
       inkscape:transform-center-x="-1.8892484"
       inkscape:transform-center-y="-0.39033876" />
    <path
       sodipodi:type="star"
       style="fill:#cccccc;fill-opacity:1;stroke:#dccbcb;stroke-opacity:1"
       id="path3195-8"
       sodipodi:sides="5"
       sodipodi:cx="-432.85715"
       sodipodi:cy="448.57144"
       sodipodi:r1="36.617161"
       sodipodi:r2="29.623903"
       sodipodi:arg1="1.2120257"
       sodipodi:arg2="1.8403442"
       inkscape:flatsided="true"
       inkscape:rounded="0"
       inkscape:randomized="0"
       d="m -420.00001,482.85716 -41.49172,-11.46298 -1.9197,-43.00323 40.30527,-15.11447 26.82974,33.66196 z"
       transform="matrix(0.49829507,0,0,0.49829507,277.04625,784.80698)"
       inkscape:transform-center-x="-1.50147"
       inkscape:transform-center-y="-0.2514516"
       inkscape:export-xdpi="97.676086"
       inkscape:export-ydpi="97.676086" />
    <path
       sodipodi:type="star"
       style="fill:#e6e6e6;fill-opacity:1;stroke:#c8b7b7"
       id="path3199-9"
       sodipodi:sides="5"
       sodipodi:cx="-358.57144"
       sodipodi:cy="152.85715"
       sodipodi:r1="39.512333"
       sodipodi:r2="31.966148"
       sodipodi:arg1="2.4329664"
       sodipodi:arg2="3.0612849"
       inkscape:flatsided="true"
       inkscape:rounded="0"
       inkscape:randomized="0"
       d="m -388.57144,178.57143 -3.72625,-46.29983 42.88228,-17.8513 30.22896,35.26711 -24.19976,39.64758 z"
       transform="matrix(0.49829507,0,0,0.49829507,268.6931,928.11087)"
       inkscape:transform-center-x="-1.409826"
       inkscape:transform-center-y="-0.48807819" />
    <path
       sodipodi:type="star"
       style="fill:#f2f2f2;fill-opacity:1;stroke:#c8b7b7"
       id="path3199-3"
       sodipodi:sides="5"
       sodipodi:cx="-358.57144"
       sodipodi:cy="152.85715"
       sodipodi:r1="39.512333"
       sodipodi:r2="31.966148"
       sodipodi:arg1="2.4329664"
       sodipodi:arg2="3.0612849"
       inkscape:flatsided="true"
       inkscape:rounded="0"
       inkscape:randomized="0"
       d="m -388.57144,178.57143 -3.72625,-46.29983 42.88228,-17.8513 30.22896,35.26711 -24.19976,39.64758 z"
       transform="matrix(0.34408672,0,0,0.34408672,235.26327,968.53547)"
       inkscape:transform-center-x="-0.97352805"
       inkscape:transform-center-y="-0.33703252" />
    <path
       sodipodi:type="star"
       style="fill:#f2f2f2;fill-opacity:1;stroke:#c8b7b7"
       id="path3199-3-0"
       sodipodi:sides="5"
       sodipodi:cx="-358.57144"
       sodipodi:cy="152.85715"
       sodipodi:r1="39.512333"
       sodipodi:r2="31.966148"
       sodipodi:arg1="2.4329664"
       sodipodi:arg2="3.0612849"
       inkscape:flatsided="true"
       inkscape:rounded="0"
       inkscape:randomized="0"
       d="m -388.57144,178.57143 -3.72625,-46.29983 42.88228,-17.8513 30.22896,35.26711 -24.19976,39.64758 z"
       transform="matrix(0.34408672,0,0,0.34408672,268.12041,974.38882)"
       inkscape:transform-center-x="-0.97352805"
       inkscape:transform-center-y="-0.33703252" />
    <path
       sodipodi:type="star"
       style="fill:#f9f9f9;fill-opacity:1;stroke:#dccbcb;stroke-opacity:1"
       id="path3195-8-0"
       sodipodi:sides="5"
       sodipodi:cx="-432.85715"
       sodipodi:cy="448.57144"
       sodipodi:r1="36.617161"
       sodipodi:r2="29.623903"
       sodipodi:arg1="1.2120257"
       sodipodi:arg2="1.8403442"
       inkscape:flatsided="true"
       inkscape:rounded="0"
       inkscape:randomized="0"
       d="m -420.00001,482.85716 -41.49172,-11.46298 -1.9197,-43.00323 40.30527,-15.11447 26.82974,33.66196 z"
       transform="matrix(0.3204918,0,0,0.3204918,318.10449,883.91426)"
       inkscape:transform-center-x="-0.96571172"
       inkscape:transform-center-y="-0.16173851"
       inkscape:export-xdpi="97.676086"
       inkscape:export-ydpi="97.676086" />
    <g
       id="g12"
       transform="matrix(0.13333333,0,0,-0.13333333,1509.8127,185.44299)"
       inkscape:export-xdpi="97.676086"
       inkscape:export-ydpi="97.676086">
      <g
         id="g14"
         transform="scale(10)">
        <text
           transform="matrix(1,0,0,-1,110.734,32.0035)"
           style="font-variant:normal;font-weight:bold;font-size:12.65769958px;font-family:SharpSansNo1;-inkscape-font-specification:SharpSansNo1-Bold;writing-mode:lr-tb;fill:#325894;fill-opacity:1;fill-rule:nonzero;stroke:none"
           id="text18">
          <tspan
             x="0 7.421392 14.800781 20.98633 28.398924 36.278313 41.375484 48.533192 55.596188 59.013672 62.400883 69.571289 75.719238 80.880859 83.779297 88.82618 95.843758 100.75197"
             y="0"
             sodipodi:role="line"
             id="tspan16">Research Institute</tspan>
        </text>
      </g>
      <path
         d="m 1112.35,846.414 h -43.33 v 21.348 h 109.26 v -21.348 h -43.32 V 714.977 h -22.61 v 131.437"
         style="fill:#5d5f60;fill-opacity:1;fill-rule:nonzero;stroke:none"
         id="path20"
         inkscape:connector-curvature="0" />
      <path
         d="m 1196.46,867.762 h 22.19 v -61.321 c 7.12,9.207 18.63,15.282 32.23,15.282 26.37,0 42.49,-17.164 42.49,-45.629 v -61.117 h -22.81 v 59.019 c 0,17.375 -8.37,28.254 -25.33,28.254 -14.86,0 -26.37,-11.301 -26.37,-29.723 v -57.55 h -22.4 v 152.785"
         style="fill:#5d5f60;fill-opacity:1;fill-rule:nonzero;stroke:none"
         id="path22"
         inkscape:connector-curvature="0" />
      <path
         d="m 1333.53,778.602 h 62.79 c -3.35,15.07 -14.86,23.441 -30.98,23.441 -15.49,0 -27.63,-9.629 -31.81,-23.441 z m -22.61,-11.723 c 0,30.769 23.66,54.844 54.42,54.844 30.98,0 53.79,-22.403 53.79,-53.379 v -8.785 h -86.65 c 2.93,-16.118 15.49,-26.793 33.7,-26.793 14.23,0 25.11,7.535 30.56,18.836 l 18.41,-10.25 c -9.2,-17.164 -25.74,-28.473 -48.97,-28.473 -33.07,0 -55.26,23.656 -55.26,54"
         style="fill:#5d5f60;fill-opacity:1;fill-rule:nonzero;stroke:none"
         id="path24"
         inkscape:connector-curvature="0" />
      <path
         d="m 1619.61,791.371 c 0,30.973 -24.29,56.508 -55.68,56.508 -31.19,0 -55.46,-25.535 -55.46,-56.508 0,-30.976 24.27,-56.301 55.46,-56.301 31.39,0 55.68,25.325 55.68,56.301 z m -133.96,0 c 0,43.324 34.96,78.484 78.28,78.484 43.53,0 78.49,-35.16 78.49,-78.484 0,-43.324 -34.96,-78.492 -78.49,-78.492 -43.32,0 -78.28,35.168 -78.28,78.492"
         style="fill:#5d5f60;fill-opacity:1;fill-rule:nonzero;stroke:none"
         id="path26"
         inkscape:connector-curvature="0" />
      <path
         d="m 1655.99,819.629 h 17.79 v 24.691 l 22.6,12.352 v -37.043 h 22.18 v -20.094 h -22.18 v -41.656 c 0,-18.84 2.93,-21.762 22.18,-21.762 v -21.14 h -3.35 c -31.8,0 -41.43,10.046 -41.43,42.699 v 41.859 h -17.79 v 20.094"
         style="fill:#5d5f60;fill-opacity:1;fill-rule:nonzero;stroke:none"
         id="path28"
         inkscape:connector-curvature="0" />
      <path
         d="m 1732.78,819.629 h 17.8 v 24.691 l 22.59,12.352 v -37.043 h 22.2 v -20.094 h -22.2 v -41.656 c 0,-18.84 2.94,-21.762 22.2,-21.762 v -21.14 h -3.35 c -31.82,0 -41.44,10.046 -41.44,42.699 v 41.859 h -17.8 v 20.094"
         style="fill:#5d5f60;fill-opacity:1;fill-rule:nonzero;stroke:none"
         id="path30"
         inkscape:connector-curvature="0" />
      <path
         d="m 1898.74,767.508 c 0,18.629 -14.02,33.906 -33.07,33.906 -18.63,0 -33.06,-14.859 -33.06,-33.906 0,-19.043 14.43,-34.117 33.06,-34.117 19.05,0 33.07,15.281 33.07,34.117 z m -88.33,-0.211 c 0,33.488 24.91,54.426 52.33,54.426 13.81,0 27,-6.075 34.74,-15.703 v 13.609 h 22.39 V 714.977 h -22.39 v 14.441 c -7.95,-10.254 -21.13,-16.539 -34.95,-16.539 -26.58,0 -52.12,21.141 -52.12,54.418"
         style="fill:#5d5f60;fill-opacity:1;fill-rule:nonzero;stroke:none"
         id="path32"
         inkscape:connector-curvature="0" />
      <path
         d="m 1937.01,819.836 22.82,-0.207 23.86,-74.309 27.42,74.309 h 22.18 l 27,-74.309 24.7,74.309 h 22.81 l -36.41,-104.652 h -21.56 l -27.84,74.718 -28.25,-74.718 h -21.97 l -34.76,104.859"
         style="fill:#5d5f60;fill-opacity:1;fill-rule:nonzero;stroke:none"
         id="path34"
         inkscape:connector-curvature="0" />
      <path
         d="m 2208.86,767.508 c 0,18.629 -14.02,33.906 -33.06,33.906 -18.63,0 -33.08,-14.859 -33.08,-33.906 0,-19.043 14.45,-34.117 33.08,-34.117 19.04,0 33.06,15.281 33.06,34.117 z m -88.32,-0.211 c 0,33.488 24.91,54.426 52.33,54.426 13.81,0 26.99,-6.075 34.74,-15.703 v 13.609 H 2230 V 714.977 h -22.39 v 14.441 c -7.95,-10.254 -21.15,-16.539 -34.95,-16.539 -26.59,0 -52.12,21.141 -52.12,54.418"
         style="fill:#5d5f60;fill-opacity:1;fill-rule:nonzero;stroke:none"
         id="path36"
         inkscape:connector-curvature="0" />
      <path
         d="m 1204.23,570.176 h -69.07 v -65.93 h -22.82 v 152.781 h 22.82 v -65.089 h 69.07 v 65.089 h 22.6 V 504.246 h -22.6 v 65.93"
         style="fill:#5d5f60;fill-opacity:1;fill-rule:nonzero;stroke:none"
         id="path38"
         inkscape:connector-curvature="0" />
      <path
         d="m 1333.04,556.566 c 0,18.422 -14.23,33.485 -32.22,33.485 -18.01,0 -32.03,-15.063 -32.03,-33.485 0,-18.418 14.02,-33.488 32.03,-33.488 17.99,0 32.22,15.07 32.22,33.488 z m -86.43,0 c 0,30.563 24.07,54.422 54.21,54.422 30.14,0 54.41,-23.859 54.41,-54.422 0,-30.347 -24.27,-54.421 -54.41,-54.421 -30.14,0 -54.21,24.074 -54.21,54.421"
         style="fill:#5d5f60;fill-opacity:1;fill-rule:nonzero;stroke:none"
         id="path40"
         inkscape:connector-curvature="0" />
      <path
         d="m 1364.06,526.426 20.09,10.472 c 5.65,-9.628 14.86,-15.289 26.79,-15.289 12.56,0 19.05,6.493 19.05,13.825 0,8.367 -12.14,10.25 -25.33,12.968 -17.79,3.774 -36.21,9.629 -36.21,31.188 0,16.535 15.7,31.812 40.39,31.605 19.47,0 33.91,-7.746 42.07,-20.3 l -18.62,-10.258 c -4.82,7.324 -12.98,11.929 -23.45,11.929 -11.93,0 -18,-5.863 -18,-12.558 0,-7.535 9.63,-9.625 24.7,-12.973 17.16,-3.769 36.63,-9.422 36.63,-31.187 0,-14.446 -12.56,-33.907 -42.28,-33.703 -21.77,0 -37.04,8.796 -45.83,24.281"
         style="fill:#5d5f60;fill-opacity:1;fill-rule:nonzero;stroke:none"
         id="path42"
         inkscape:connector-curvature="0" />
      <path
         d="m 1557.01,556.773 c 0,19.051 -14.44,33.911 -33.06,33.911 -19.05,0 -33.08,-15.282 -33.08,-33.911 0,-18.835 14.03,-34.113 33.08,-34.113 18.62,0 33.06,15.07 33.06,34.113 z m -64.88,-39.554 v -61.117 h -22.19 v 152.793 h 22.19 v -14.649 c 7.74,10.25 20.94,16.742 34.95,16.742 27.42,0 52.12,-20.937 52.12,-54.422 0,-33.277 -25.54,-54.421 -51.91,-54.421 -14.44,0 -27.62,5.445 -35.16,15.074"
         style="fill:#5d5f60;fill-opacity:1;fill-rule:nonzero;stroke:none"
         id="path44"
         inkscape:connector-curvature="0" />
      <path
         d="m 1597.09,608.895 h 22.6 V 504.246 h -22.6 z m 0,43.746 h 22.6 v -29.309 h -22.6 v 29.309"
         style="fill:#5d5f60;fill-opacity:1;fill-rule:nonzero;stroke:none"
         id="path46"
         inkscape:connector-curvature="0" />
      <path
         d="m 1633.71,608.895 h 17.79 v 24.691 l 22.6,12.355 v -37.046 h 22.19 v -20.094 h -22.19 v -41.656 c 0,-18.836 2.93,-21.762 22.19,-21.762 v -21.137 h -3.35 c -31.81,0 -41.44,10.043 -41.44,42.695 v 41.86 h -17.79 v 20.094"
         style="fill:#5d5f60;fill-opacity:1;fill-rule:nonzero;stroke:none"
         id="path48"
         inkscape:connector-curvature="0" />
      <path
         d="m 1794.35,556.773 c 0,18.629 -14.02,33.911 -33.06,33.911 -18.63,0 -33.08,-14.86 -33.08,-33.911 0,-19.043 14.45,-34.113 33.08,-34.113 19.04,0 33.06,15.278 33.06,34.113 z m -88.32,-0.207 c 0,33.485 24.91,54.422 52.32,54.422 13.82,0 27,-6.074 34.75,-15.703 v 13.61 h 22.39 V 504.246 h -22.39 v 14.438 c -7.95,-10.254 -21.15,-16.539 -34.96,-16.539 -26.58,0 -52.11,21.144 -52.11,54.421"
         style="fill:#5d5f60;fill-opacity:1;fill-rule:nonzero;stroke:none"
         id="path50"
         inkscape:connector-curvature="0" />
      <path
         d="m 1838.16,657.027 h 22.41 V 504.246 h -22.41 v 152.781"
         style="fill:#5d5f60;fill-opacity:1;fill-rule:nonzero;stroke:none"
         id="path52"
         inkscape:connector-curvature="0" />
      <path
         d="m 588.57,690.469 v 183.66 H 772.172 V 690.531 H 955.781 V 506.918 H 772.172 V 323.301 H 588.57 c 118.801,41.144 198.711,147.297 181.75,243.187 -13.953,78.864 -90.422,121.977 -181.535,123.981 z M 404.949,629.461 v 61.07 H 575.98 c -14.812,-0.293 -29.984,-1.64 -45.253,-4.074 -47.125,-7.508 -90.293,-28.398 -125.778,-56.996 M 588.57,447.289 v 59.629 H 404.949 c 0,71.398 59.414,127.852 129.117,143.809 70.778,16.199 134.723,-17.372 140.645,-75.868 4.957,-48.972 -31.348,-100.175 -86.141,-127.57"
         style="fill:#325894;fill-opacity:1;fill-rule:evenodd;stroke:none"
         id="path54"
         inkscape:connector-curvature="0" />
    </g>
  </g>
</svg>
